# xmcd CD database file
#
# Track frame offsets:
#	150
#	13122
#	33571
#	49317
#	69501
#	86743
#
# Disc length: 1381 seconds
#
# Revision: 0
# Processed by: cddbd v1.5.1PL2 Copyright (c) Steve Scherf et al.
# Submitted via: CDex 1.51
#
DISCID=4d056306
DTITLE=Quiet Life - One pain Two smile
DYEAR=2003
DGENRE=JPop
TTITLE0=0739
TTITLE1=アニバーサリー
TTITLE2=ナイ・ナイ
TTITLE3=HELLO
TTITLE4=バランス
TTITLE5=July 〜smile ver.〜
EXTD=YEAR: 2003
EXTT0=
EXTT1=
EXTT2=
EXTT3=
EXTT4=
EXTT5=
PLAYORDER=
